# xmcd
#
# Track frame offsets:
#	150
#	27455
#	43209
#	71633
#	96543
#	129575
#	152965
#	173277
#	191357
#	216748
#
# Disc length: 3150 seconds
#
# Revision: 0
# Processed by: cddbd v1.5.2PL0 Copyright (c) Steve Scherf et al.
# Submitted via: EasyCDDAExtractor 12.0.1.1
#
DISCID=950c4c0a
DTITLE=The Robert Cray Band - This Time
DYEAR=2009
DGENRE=
TTITLE0=Chicken In The Kitchen
TTITLE1=I Can't Fail
TTITLE2=Love 2009
TTITLE3=That's What Keeps Me Rockin'
TTITLE4=This Time
TTITLE5=To Be True
TTITLE6=Forever Goodbye
TTITLE7=Trouble and Pain
TTITLE8=Truce
TTITLE9=Keep Loving Me Baby
EXTD=
EXTT0=
EXTT1=
EXTT2=
EXTT3=
EXTT4=
EXTT5=
EXTT6=
EXTT7=
EXTT8=
EXTT9=
PLAYORDER=
